<svg xmlns="http://www.w3.org/2000/svg" xmlns:xlink="http://www.w3.org/1999/xlink" width="500" zoomAndPan="magnify" viewBox="0 0 375 374.999991" height="500" preserveAspectRatio="xMidYMid meet" version="1.0"><defs><g/><clipPath id="09e84c16ed"><path d="M 118.464844 85.683594 L 256.464844 85.683594 L 256.464844 223.683594 L 118.464844 223.683594 Z M 118.464844 85.683594 " clip-rule="nonzero"/></clipPath><clipPath id="aa6ad8151f"><path d="M 144.515625 106 L 230.765625 106 L 230.765625 205.992188 L 144.515625 205.992188 Z M 144.515625 106 " clip-rule="nonzero"/></clipPath></defs><g clip-path="url(#09e84c16ed)"><path fill="#00bfe7" d="M 187.464844 85.683594 C 149.359375 85.683594 118.464844 116.578125 118.464844 154.683594 C 118.464844 192.792969 149.359375 223.683594 187.464844 223.683594 C 225.574219 223.683594 256.464844 192.792969 256.464844 154.683594 C 256.464844 116.578125 225.574219 85.683594 187.464844 85.683594 " fill-opacity="1" fill-rule="nonzero"/></g><g clip-path="url(#aa6ad8151f)"><path fill="#ffffff" d="M 195.992188 169.132812 L 192.09375 163.324219 L 206.539062 141.855469 L 206.710938 141.574219 C 207.035156 141.082031 207.347656 140.570312 207.65625 140.035156 L 208.140625 139.160156 L 208.140625 139.085938 C 211.699219 131.910156 211.28125 122.6875 205.902344 115.390625 C 202.964844 111.40625 198.625 108.523438 193.824219 107.261719 C 178.597656 103.253906 164.832031 114.625 164.832031 129.132812 C 164.832031 132.953125 165.789062 136.699219 167.535156 139.84375 L 183.199219 163.300781 L 179.285156 169.128906 L 147.621094 121.984375 C 146.695312 120.605469 144.539062 121.257812 144.539062 122.914062 L 144.539062 183.457031 L 151.945312 188.078125 L 151.945312 141.6875 L 174.832031 175.761719 L 173.128906 178.296875 L 172.261719 179.648438 L 172.085938 179.972656 C 170.675781 182.511719 169.933594 185.421875 169.933594 188.390625 C 169.933594 198.101562 177.878906 206.003906 187.644531 206.003906 C 197.40625 206.003906 205.351562 198.101562 205.351562 188.390625 C 205.351562 185.769531 204.769531 183.1875 203.664062 180.867188 L 203.171875 179.902344 C 202.902344 179.433594 202.628906 178.984375 202.519531 178.851562 L 200.449219 175.769531 L 223.339844 141.691406 L 223.339844 188.082031 L 230.746094 183.460938 L 230.746094 122.914062 C 230.746094 121.257812 228.589844 120.605469 227.664062 121.984375 Z M 174.347656 136.878906 L 174.089844 136.40625 C 172.882812 134.226562 172.242188 131.710938 172.242188 129.132812 C 172.242188 120.683594 179.152344 113.8125 187.644531 113.8125 C 196.136719 113.8125 203.042969 120.683594 203.042969 129.132812 C 203.042969 131.710938 202.402344 134.226562 201.199219 136.402344 L 201.027344 136.722656 C 200.839844 137.035156 200.65625 137.335938 200.457031 137.621094 L 187.644531 156.6875 L 175.132812 138.058594 Z M 185.121094 198.332031 C 180.664062 197.273438 177.410156 193.097656 177.339844 188.539062 C 177.316406 186.757812 177.738281 185.027344 178.675781 183.332031 L 178.753906 183.1875 L 187.644531 169.941406 L 195.996094 182.34375 L 196.21875 182.710938 C 196.335938 182.878906 196.441406 183.050781 196.546875 183.226562 L 196.710938 183.523438 C 197.515625 184.980469 197.941406 186.660156 197.941406 188.382812 C 197.941406 194.855469 191.886719 199.941406 185.121094 198.332031 Z M 185.121094 198.332031 " fill-opacity="1" fill-rule="nonzero"/></g><g fill="#000000" fill-opacity="1"><g transform="translate(130.627528, 268.650364)"><g><path d="M 18.125 0 L 18.09375 -10.578125 L 12.90625 -1.859375 L 11.078125 -1.859375 L 5.921875 -10.34375 L 5.921875 0 L 2.09375 0 L 2.09375 -17.625 L 5.46875 -17.625 L 12.0625 -6.671875 L 18.546875 -17.625 L 21.90625 -17.625 L 21.953125 0 Z M 18.125 0 "/></g></g></g><g fill="#000000" fill-opacity="1"><g transform="translate(158.367733, 268.650364)"><g><path d="M 15.25 -13.546875 L 9.140625 0.828125 C 8.515625 2.390625 7.742188 3.488281 6.828125 4.125 C 5.921875 4.757812 4.820312 5.078125 3.53125 5.078125 C 2.820312 5.078125 2.125 4.96875 1.4375 4.75 C 0.75 4.539062 0.1875 4.238281 -0.25 3.84375 L 1.1875 1.0625 C 1.488281 1.320312 1.832031 1.523438 2.21875 1.671875 C 2.613281 1.828125 3.003906 1.90625 3.390625 1.90625 C 3.929688 1.90625 4.367188 1.773438 4.703125 1.515625 C 5.035156 1.253906 5.335938 0.820312 5.609375 0.21875 L 5.65625 0.09375 L -0.203125 -13.546875 L 3.84375 -13.546875 L 7.65625 -4.359375 L 11.484375 -13.546875 Z M 15.25 -13.546875 "/></g></g></g><g fill="#000000" fill-opacity="1"><g transform="translate(177.121602, 268.650364)"><g><path d="M 28.71875 -17.625 L 22.953125 0 L 18.578125 0 L 14.703125 -11.9375 L 10.703125 0 L 6.34375 0 L 0.546875 -17.625 L 4.78125 -17.625 L 8.765625 -5.234375 L 12.90625 -17.625 L 16.6875 -17.625 L 20.71875 -5.140625 L 24.8125 -17.625 Z M 28.71875 -17.625 "/></g></g></g><g fill="#000000" fill-opacity="1"><g transform="translate(210.097551, 268.650364)"><g><path d="M 7.28125 -13.75 C 9.375 -13.75 10.984375 -13.25 12.109375 -12.25 C 13.234375 -11.25 13.796875 -9.742188 13.796875 -7.734375 L 13.796875 0 L 10.125 0 L 10.125 -1.6875 C 9.382812 -0.425781 8.003906 0.203125 5.984375 0.203125 C 4.953125 0.203125 4.050781 0.0234375 3.28125 -0.328125 C 2.519531 -0.679688 1.9375 -1.164062 1.53125 -1.78125 C 1.132812 -2.40625 0.9375 -3.113281 0.9375 -3.90625 C 0.9375 -5.164062 1.410156 -6.15625 2.359375 -6.875 C 3.304688 -7.59375 4.769531 -7.953125 6.75 -7.953125 L 9.875 -7.953125 C 9.875 -8.804688 9.613281 -9.460938 9.09375 -9.921875 C 8.570312 -10.390625 7.789062 -10.625 6.75 -10.625 C 6.019531 -10.625 5.304688 -10.507812 4.609375 -10.28125 C 3.921875 -10.050781 3.332031 -9.742188 2.84375 -9.359375 L 1.4375 -12.109375 C 2.175781 -12.628906 3.0625 -13.03125 4.09375 -13.3125 C 5.125 -13.601562 6.1875 -13.75 7.28125 -13.75 Z M 6.96875 -2.4375 C 7.644531 -2.4375 8.242188 -2.59375 8.765625 -2.90625 C 9.285156 -3.21875 9.65625 -3.675781 9.875 -4.28125 L 9.875 -5.65625 L 7.171875 -5.65625 C 5.554688 -5.65625 4.75 -5.128906 4.75 -4.078125 C 4.75 -3.578125 4.945312 -3.175781 5.34375 -2.875 C 5.738281 -2.582031 6.28125 -2.4375 6.96875 -2.4375 Z M 6.96875 -2.4375 "/></g></g></g><g fill="#000000" fill-opacity="1"><g transform="translate(229.329678, 268.650364)"><g><path d="M 15.25 -13.546875 L 9.140625 0.828125 C 8.515625 2.390625 7.742188 3.488281 6.828125 4.125 C 5.921875 4.757812 4.820312 5.078125 3.53125 5.078125 C 2.820312 5.078125 2.125 4.96875 1.4375 4.75 C 0.75 4.539062 0.1875 4.238281 -0.25 3.84375 L 1.1875 1.0625 C 1.488281 1.320312 1.832031 1.523438 2.21875 1.671875 C 2.613281 1.828125 3.003906 1.90625 3.390625 1.90625 C 3.929688 1.90625 4.367188 1.773438 4.703125 1.515625 C 5.035156 1.253906 5.335938 0.820312 5.609375 0.21875 L 5.65625 0.09375 L -0.203125 -13.546875 L 3.84375 -13.546875 L 7.65625 -4.359375 L 11.484375 -13.546875 Z M 15.25 -13.546875 "/></g></g></g></svg>