<?xml version="1.0" encoding="UTF-8" standalone="no"?>
<svg
   width="569"
   height="430"
   viewBox="0 0 569 430"
   fill="none"
   version="1.1"
   id="svg293"
   sodipodi:docname="questions_illustr.svg"
   inkscape:version="1.2.1 (9c6d41e410, 2022-07-14)"
   xmlns:inkscape="http://www.inkscape.org/namespaces/inkscape"
   xmlns:sodipodi="http://sodipodi.sourceforge.net/DTD/sodipodi-0.dtd"
   xmlns:xlink="http://www.w3.org/1999/xlink"
   xmlns="http://www.w3.org/2000/svg"
   xmlns:svg="http://www.w3.org/2000/svg">
  <sodipodi:namedview
     id="namedview295"
     pagecolor="#ffffff"
     bordercolor="#000000"
     borderopacity="0.25"
     inkscape:showpageshadow="2"
     inkscape:pageopacity="0.0"
     inkscape:pagecheckerboard="0"
     inkscape:deskcolor="#d1d1d1"
     showgrid="false"
     inkscape:zoom="2.0093023"
     inkscape:cx="284.92477"
     inkscape:cy="294.87847"
     inkscape:window-width="1920"
     inkscape:window-height="1051"
     inkscape:window-x="-9"
     inkscape:window-y="-9"
     inkscape:window-maximized="1"
     inkscape:current-layer="g277" />
  <g
     clip-path="url(#clip0_2708_4636)"
     id="g283">
    <g
       clip-path="url(#clip1_2708_4636)"
       id="g277">
      <rect
         x="138.055"
         y="-0.000976562"
         width="265.196"
         height="547.795"
         rx="32.7915"
         fill="#3C8AAC"
         id="rect2" />
      <mask
         id="mask0_2708_4636"
         style="mask-type:alpha"
         maskUnits="userSpaceOnUse"
         x="138"
         y="-34"
         width="266"
         height="635">
        <rect
           x="138.055"
           y="-33.5986"
           width="265.196"
           height="634.009"
           rx="32.7915"
           fill="#3C8AAC"
           id="rect4" />
      </mask>
      <g
         mask="url(#mask0_2708_4636)"
         id="g13">
        <path
           d="M363.497 426.193C377.601 396.712 409.39 375.603 444.593 395.347C479.796 415.09 418.529 598.502 350.696 610.468C282.863 622.435 254.792 575.38 225.393 562.301C171.445 538.299 167.003 466.702 210.454 450.68C253.906 434.659 288.459 465.208 313.685 470.098C338.911 474.989 349.393 455.673 363.497 426.193Z"
           fill="#F8EFE5"
           id="path7" />
        <path
           d="M153.656 397.085C154.29 407.01 148.384 422.122 126.971 423.769C105.559 425.416 87.7677 390.166 110.122 378.152C136.194 364.139 152.614 380.794 153.656 397.085Z"
           fill="#1B1B1B"
           id="path9" />
        <path
           d="M433.146 302.685C433.78 312.611 423.495 320.812 414.217 325.333C384.726 334.343 361.352 291.851 388.169 279.321C414.985 266.792 432.512 292.759 433.146 302.685Z"
           fill="#F8EFE5"
           id="path11" />
      </g>
      <path
         d="M366.242 224.145L356.708 170.578"
         stroke="#1B1B1B"
         stroke-width="0.721263"
         stroke-linecap="round"
         stroke-linejoin="round"
         id="path15" />
      <path
         d="M362.1 193.059C362.221 193.704 361.794 194.325 361.147 194.446C360.501 194.566 359.879 194.14 359.759 193.494L356.086 173.781C355.966 173.135 356.393 172.514 357.039 172.394C357.686 172.274 358.308 172.7 358.428 173.346L362.1 193.059Z"
         fill="#EBC7B5"
         id="path17" />
      <path
         d="M359.72 238.155C359.559 237.904 359.38 237.664 359.185 237.437C366.855 188.029 378.984 172.956 378.984 172.956C371.068 193.823 363.391 223.823 359.855 238.364L359.72 238.155Z"
         fill="#F8EFE5"
         id="path19" />
      <path
         d="M364.462 244.208C364.087 203.971 364.746 168.944 364.746 168.944C369.139 191.262 366.783 228.155 365.372 244.791C365.065 244.604 364.761 244.41 364.462 244.208Z"
         fill="#1B1B1B"
         id="path21" />
      <path
         d="M368.906 244.609C368.906 244.609 368.554 189.326 359.413 160.698C359.413 160.706 363.285 201.04 368.906 244.609Z"
         fill="#F8EFE5"
         id="path23" />
      <path
         d="M365.176 223.127L371.719 161.351"
         stroke="#1B1B1B"
         stroke-width="0.721263"
         stroke-linecap="round"
         stroke-linejoin="round"
         id="path25" />
      <path
         d="M350.914 108.114C347.566 104.748 337.376 102.212 337.376 102.212L331.422 100.91C331.422 100.91 331.983 112.348 332.298 112.348C332.613 112.348 340.503 113.159 340.503 113.159L344.716 112.381"
         fill="#3C8AAC"
         id="path27" />
      <path
         d="M252.872 96.7978C252.872 99.0419 254.336 100.504 256.991 103.156C259.358 105.52 268.443 113.068 270.241 114.556L270.473 114.751L270.713 114.564C273.626 112.267 288.276 100.725 290.321 98.6678C292.221 96.751 294.722 95.5442 297.406 95.2493L300.099 94.8267L299.725 90.2524H302.691V106.896L313.176 94.1796L314.611 90.0654H322.527L321.778 93.8056L322.344 94.0263L328.392 96.3938C328.542 96.435 328.692 96.4836 328.838 96.5397L329.029 96.607C332.069 97.7552 334.212 100.856 336.758 107.644C340.095 116.527 345.705 134.798 347.244 140.558C347.869 142.903 347.656 144.784 346.607 146.168C345.263 147.919 342.578 148.805 338.631 148.805C336.357 148.805 332.946 148.165 329.336 147.485C326.257 146.905 322.771 146.25 319.651 145.951L320.176 146.108L318.573 150.888C318.573 150.888 308.918 151.58 305.349 154.206C303.025 155.953 300.876 157.922 298.934 160.085L282.082 159.996L280.873 158.249C280.194 157.268 279.727 156.156 279.501 154.985C279.276 153.814 279.296 152.608 279.562 151.446L286.265 119.418L285.543 119.837C282.052 121.846 277.513 124.475 275.712 125.597C274.664 126.252 272.214 127.781 269.503 127.781C268.557 127.776 267.622 127.577 266.755 127.199C265.889 126.82 265.108 126.269 264.462 125.578C263.268 124.228 252.707 112.305 250.003 109.604C247.198 106.799 244.805 106.986 244.783 106.986C250.602 106.533 252.688 102.561 252.872 96.7978ZM332.077 137.124L327.085 125.765L323.149 137.199L332.077 137.124Z"
         fill="#EBC7B5"
         id="path29" />
      <path
         d="M312.136 147.473C312.885 147.099 313.686 145.977 313.686 145.977C313.686 145.977 314.341 143.198 312.911 141.313C311.48 139.428 308.2 138.279 308.2 138.279L299.849 141.44L294.958 143.59L290.951 147.473L287.79 152.271L288.131 153.393L288.756 153.55C288.756 153.55 289.808 153.442 289.808 153.176C289.808 152.911 293.879 149.436 293.879 149.436L297.205 146.538L296.37 149.855C296.307 150.118 296.31 150.392 296.379 150.653C296.448 150.914 296.581 151.154 296.767 151.351C297.392 151.976 299.856 153.034 299.856 153.034L303.433 154.197H305.365C305.365 154.197 306.44 152.466 306.44 151.811C306.44 151.157 305.769 149.855 305.769 149.855C307.974 149.3 310.109 148.501 312.136 147.473V147.473Z"
         fill="#F8EFE5"
         id="path31" />
      <path
         d="M301.147 171.751C306.128 160.74 310.247 157.385 318.782 157.385H330.017C343.147 157.385 351.614 154.093 356.344 146.912C351.168 160.377 341.997 175.712 336.091 185.608L335.904 185.922C334.422 188.388 332.327 190.429 329.822 191.848C327.318 193.268 324.489 194.017 321.61 194.023L284.535 193.836C291.849 191.031 296.455 182.148 301.147 171.751Z"
         fill="#F8EFE5"
         id="path33" />
      <path
         d="M310.969 96.8421L302.681 106.892V96.4082L310.969 96.8421Z"
         fill="#F8EFE5"
         id="path35" />
      <path
         d="M252.114 101.539C252.114 101.539 250.563 107.049 245.421 107.011C240.28 106.974 239.107 105.923 239.107 105.923L235.258 102.833L233.951 102.126L232.176 101.539L231.827 99.9609L229.206 99.0259L228.082 98.203L220.402 90.5132C220.402 90.5132 218.971 89.638 220.6 89.638C222.229 89.638 222.405 89.7315 222.405 89.7315L226.614 93.0977L225.783 89.6193L228.03 90.0607L229.985 93.8794L229.846 92.4993L231.326 92.0766L232.449 93.2997L233.164 95.4503H234.539L235.13 94.5489L236.224 95.1099L236.52 95.5288C236.52 95.5288 243.186 96.1459 244.8 95.4951C246.414 94.8443 246.624 93.5876 246.414 92.9256C246.204 92.2636 244.399 88.7292 244.167 88.0148C243.935 87.3004 243.721 86.1148 244.26 85.6248C244.409 85.4849 244.587 85.3808 244.782 85.3205C244.977 85.2601 245.183 85.2453 245.384 85.277L249.447 90.9508C249.447 90.9508 252.226 94.9304 252.424 95.6073C252.623 96.2843 253.147 99.9011 252.114 101.539Z"
         fill="#F8EFE5"
         id="path37" />
      <path
         d="M194.224 149.116C194.224 153.672 198.811 157.367 204.474 157.367C210.136 157.367 214.742 153.672 214.742 149.116H194.224Z"
         fill="#F8EFE5"
         id="path39" />
      <path
         d="M204.47 157.374H207.421C207.882 157.374 208.338 157.464 208.764 157.64C209.19 157.816 209.577 158.074 209.903 158.399C210.229 158.725 210.487 159.111 210.664 159.537C210.84 159.962 210.93 160.418 210.93 160.879H198.01C198.01 159.949 198.379 159.058 199.037 158.4C199.696 157.743 200.588 157.374 201.519 157.374H204.47Z"
         fill="#F8EFE5"
         id="path41" />
      <path
         d="M204.465 157.371C204.465 157.371 205.155 157.58 206.042 157.831C207.806 158.324 210.36 158.953 209.899 158.407L209.854 158.358C209.695 158.205 209.562 158.027 209.461 157.831C209.388 157.672 209.356 157.498 209.368 157.325C209.379 157.151 209.435 156.983 209.529 156.836C209.845 156.36 210.257 155.955 210.738 155.646C210.929 155.504 211.143 155.358 211.382 155.209L211.412 155.186L211.607 155.04C211.92 154.694 212.267 154.378 212.641 154.098L207.772 153.245L204.9 156.836L204.465 157.371Z"
         fill="#F8EFE5"
         id="path43" />
      <path
         d="M196.298 154.102C196.662 154.369 196.998 154.673 197.298 155.01L197.549 155.205H197.575C197.792 155.34 197.991 155.474 198.167 155.605C198.658 155.919 199.078 156.33 199.403 156.813C199.496 156.96 199.552 157.128 199.563 157.302C199.575 157.476 199.543 157.65 199.47 157.808C199.375 158.003 199.248 158.181 199.095 158.335L199.05 158.384C198.59 158.945 201.144 158.302 202.908 157.808C203.795 157.558 204.484 157.348 204.484 157.348L204.057 156.813L201.185 153.223L196.298 154.102Z"
         fill="#F8EFE5"
         id="path45" />
      <path
         d="M194.223 148.124H214.727V149.119H194.223V148.124Z"
         fill="#1B1B1B"
         id="path47" />
      <path
         d="M199.472 157.839H209.464C209.391 157.68 209.359 157.506 209.37 157.333C209.382 157.159 209.437 156.991 209.531 156.844H199.42C199.511 156.992 199.564 157.161 199.573 157.335C199.582 157.508 199.548 157.682 199.472 157.839V157.839Z"
         fill="#1B1B1B"
         id="path49" />
      <path
         d="M208.214 249.359H217.984L216.453 248.76L210.929 248.831L208.352 248.76L208.356 245.413L210.929 242.35V163.851H208.214V247.896H202.286L201.099 249.359H208.214Z"
         fill="#1B1B1B"
         stroke="#1B1B1B"
         stroke-width="0.801404"
         stroke-linecap="round"
         stroke-linejoin="round"
         id="path51" />
      <path
         d="M239.903 245.48C238.803 245.242 237.658 245.34 236.615 245.76L236.397 245.809H236.262C235.824 245.809 235.382 245.809 234.941 245.764C233.986 245.704 233.034 245.596 232.079 245.525C229.304 245.315 226.743 245.151 223.968 245.525C218.924 246.217 213.508 245.499 208.355 245.409V243.823C208.355 243.052 208.213 242.14 209.572 241.205C210.932 240.27 212.52 239.963 217.062 238.991C221.605 238.018 225.346 234.633 225.346 234.633L225.638 231.78L226.593 231.147H231.9V234.42H236.768L239.67 234.603L241.086 239.092L240.681 243.681L239.903 245.48Z"
         fill="#F8EFE5"
         id="path53" />
      <path
         d="M288.688 179.077L267.435 179.133L265.525 180.828C265.525 180.828 261.548 187.758 261.893 187.758H275.528C275.966 187.758 279.853 187.01 281.317 186.195C282.782 185.379 286.669 181.916 286.669 181.916L288.688 179.077Z"
         fill="#F8EFE5"
         id="path55" />
      <path
         d="M186.029 159.757V163.871H225.028C225.028 163.871 224.676 162.67 225.32 159.757H186.029Z"
         fill="#EBC7B5"
         id="path57" />
      <path
         d="M231.718 232.19L231.906 234.435L236.089 234.016C236.089 234.016 236.647 232.19 235.452 232.19H231.718Z"
         fill="#1B1B1B"
         id="path59" />
      <path
         d="M356.829 226.383C356.874 228.25 356.964 230.12 357.099 231.993C357.276 234.486 357.526 236.989 357.848 239.5C357.881 239.75 357.915 239.997 357.953 240.248C358.365 243.212 358.889 246.187 359.526 249.172H371.652C372.288 246.179 372.812 243.205 373.224 240.248C373.262 239.997 373.296 239.75 373.329 239.5C373.664 236.994 373.913 234.491 374.078 231.993C374.213 230.12 374.303 228.25 374.348 226.383C374.56 217.636 373.806 208.892 372.101 200.31C371.959 199.562 371.806 198.824 371.644 198.096H359.533C359.371 198.844 359.218 199.582 359.076 200.31C357.371 208.892 356.617 217.636 356.829 226.383V226.383Z"
         fill="#F8EFE5"
         id="path61" />
      <path
         d="M357.099 231.995C357.276 234.489 357.526 236.991 357.848 239.502C357.881 239.752 357.915 239.999 357.952 240.25H373.224C373.262 239.999 373.295 239.752 373.329 239.502C373.664 236.996 373.913 234.494 374.078 231.995H357.099Z"
         fill="#1B1B1B"
         id="path63" />
      <path
         d="M359.085 200.31H372.109C371.967 199.562 371.815 198.824 371.652 198.096H359.541C359.377 198.834 359.224 199.572 359.085 200.31Z"
         fill="#1B1B1B"
         id="path65" />
      <path
         d="M369.86 166.026C369.941 165.258 370.63 164.701 371.398 164.782C372.166 164.863 372.723 165.552 372.642 166.32L370.16 189.745C370.079 190.513 369.39 191.07 368.622 190.989C367.853 190.908 367.297 190.219 367.378 189.451L369.86 166.026Z"
         fill="#EBC7B5"
         id="path67" />
      <path
         d="M229.337 74.7723C226.119 74.7723 223.51 72.1667 223.51 68.9525C223.51 65.7384 226.119 63.1328 229.337 63.1328C232.555 63.1328 235.164 65.7384 235.164 68.9525C235.164 72.1667 232.555 74.7723 229.337 74.7723Z"
         fill="#3C8AAC"
         id="path69" />
      <path
         d="M240.246 65.5612C238.091 65.5612 236.344 63.8163 236.344 61.6639C236.344 59.5115 238.091 57.7666 240.246 57.7666C242.401 57.7666 244.148 59.5115 244.148 61.6639C244.148 63.8163 242.401 65.5612 240.246 65.5612Z"
         stroke="#1B1B1B"
         stroke-width="0.801404"
         stroke-linecap="round"
         stroke-linejoin="round"
         id="path71" />
      <path
         d="M223.518 58.1043C222.44 58.1043 221.567 57.2318 221.567 56.1556C221.567 55.0795 222.44 54.207 223.518 54.207C224.595 54.207 225.469 55.0795 225.469 56.1556C225.469 57.2318 224.595 58.1043 223.518 58.1043Z"
         fill="#1B1B1B"
         id="path73" />
      <path
         d="M230.159 77.1879C223.666 77.1879 218.403 71.9315 218.403 65.4475C218.403 58.9634 223.666 53.707 230.159 53.707C236.651 53.707 241.914 58.9634 241.914 65.4475C241.914 71.9315 236.651 77.1879 230.159 77.1879Z"
         stroke="#1B1B1B"
         stroke-width="0.717256"
         stroke-linecap="round"
         stroke-linejoin="round"
         id="path75" />
      <path
         d="M223.632 76.455C221.892 76.455 220.482 75.0468 220.482 73.3096C220.482 71.5723 221.892 70.1641 223.632 70.1641C225.371 70.1641 226.781 71.5723 226.781 73.3096C226.781 75.0468 225.371 76.455 223.632 76.455Z"
         fill="#EBC7B5"
         id="path77" />
      <path
         d="M306.826 98.4786L302.681 96.4103V91.2302V86.0276H300.786C300.786 86.0276 298.479 82.5978 298.479 82.3584C298.479 82.1191 296.607 78.0909 296.423 76.9576C296.24 75.8243 295.704 73.2922 295.869 71.2838C296.034 69.2753 296.056 68.9387 296.056 68.9387L295.307 65.5725L296.082 59.7827L294.273 58.5522C294.273 58.5522 292.334 56.5886 292.334 54.4903C292.334 52.3921 292.97 50.2078 293.903 49.2728C294.835 48.3377 298.325 45.5139 303.913 46.0712C309.5 46.6285 316.028 51.401 316.028 51.401L317.338 51.0269C317.338 51.0269 321.537 51.8124 323.652 55.1673C325.768 58.5223 325.15 67.5099 325.15 67.5099L324.735 69.1706V70.1168L324.386 71.5605L323.315 71.6765C323.315 71.6765 323.106 74.7921 321.608 76.0974C320.11 77.4027 320.282 77.6383 320.282 77.6383V90.067H314.601L313.167 94.1812L306.826 101.489L305.973 99.5932L306.826 98.4786Z"
         fill="#F8EFE5"
         id="path79" />
      <path
         d="M279.461 194.413H259.092"
         stroke="#1B1B1B"
         stroke-width="0.801404"
         stroke-linecap="round"
         stroke-linejoin="round"
         id="path81" />
      <path
         d="M344.688 155.014C340.692 156.345 335.838 157.007 330.019 157.007H318.784C310.545 157.007 306.051 159.999 300.808 171.594C298.022 177.761 295.127 183.821 291.446 188.144"
         stroke="#1B1B1B"
         stroke-width="0.801404"
         stroke-linecap="round"
         stroke-linejoin="round"
         id="path83" />
      <path
         d="M334.906 101.483C358.525 105.052 362.656 124.399 359.622 137.935"
         stroke="#1B1B1B"
         stroke-width="0.801404"
         stroke-linecap="round"
         stroke-linejoin="round"
         id="path85" />
      <path
         d="M342.769 110.036C344.517 110.883 346.142 111.962 347.6 113.245C352.906 117.962 354.715 125.165 354.011 132.107C352.798 144.334 346.896 150.808 328.92 150.808H317.685C309.446 150.808 300.058 154.922 294.841 166.517C289.201 179.072 285.958 187.738 273.495 187.738H262.26"
         stroke="#1B1B1B"
         stroke-width="0.801404"
         stroke-linecap="round"
         stroke-linejoin="round"
         id="path87" />
      <path
         d="M284.86 126.173L287.328 114.373Z"
         fill="#F8EFE5"
         id="path89" />
      <path
         d="M284.86 126.173L287.328 114.373"
         stroke="#1B1B1B"
         stroke-width="0.801404"
         stroke-linecap="round"
         stroke-linejoin="round"
         id="path91" />
      <path
         d="M300.079 94.5403L299.719 90.2466H302.681V106.89L313.167 94.1738L314.605 90.0596H322.219"
         stroke="#1B1B1B"
         stroke-width="0.801404"
         stroke-linecap="round"
         stroke-linejoin="round"
         id="path93" />
      <path
         d="M246.794 215.637C248.802 221.206 250.165 224.853 250.165 224.853C255.917 225.653 259.883 224.011 262.148 220.028L257.471 199.15"
         fill="#1B1B1B"
         id="path95" />
      <path
         d="M246.794 215.637C248.802 221.206 250.165 224.853 250.165 224.853C255.917 225.653 259.883 224.011 262.148 220.028L257.471 199.15"
         stroke="#1B1B1B"
         stroke-width="0.801404"
         stroke-linecap="round"
         stroke-linejoin="round"
         id="path97" />
      <path
         d="M297.675 145.171C297.675 145.171 296.69 148.459 296.394 150.164C296.334 150.494 296.393 150.835 296.562 151.125C296.731 151.415 296.998 151.636 297.316 151.746L298.93 152.27"
         stroke="#1B1B1B"
         stroke-width="0.801404"
         stroke-linecap="round"
         stroke-linejoin="round"
         id="path99" />
      <path
         d="M299.878 146.084C299.878 146.084 298.893 149.372 298.601 151.077C298.539 151.407 298.597 151.748 298.765 152.039C298.934 152.329 299.201 152.549 299.519 152.659L301.133 153.183"
         stroke="#1B1B1B"
         stroke-width="0.801404"
         stroke-linecap="round"
         stroke-linejoin="round"
         id="path101" />
      <path
         d="M302.062 147.393C301.555 148.9 301.135 150.434 300.804 151.989C300.742 152.319 300.8 152.661 300.969 152.952C301.137 153.243 301.404 153.464 301.721 153.575L303.845 154.263C304.19 154.368 304.561 154.346 304.891 154.199C305.22 154.053 305.486 153.793 305.639 153.467L306.346 152.012C306.457 151.785 306.489 151.529 306.436 151.282C306.383 151.036 306.248 150.815 306.054 150.654L305.845 150.482C305.646 150.32 305.393 150.242 305.138 150.263C304.882 150.285 304.646 150.405 304.478 150.598L303.729 151.428"
         stroke="#1B1B1B"
         stroke-width="0.801404"
         stroke-linecap="round"
         stroke-linejoin="round"
         id="path103" />
      <path
         opacity="0.84"
         d="M236.435 95.5747C239.888 95.7056 242.771 95.7729 244.262 95.5971C244.604 95.5701 244.936 95.465 245.231 95.2899C245.527 95.1149 245.778 94.8745 245.966 94.5873C246.221 94.1942 246.363 93.7385 246.377 93.27C246.39 92.8016 246.273 92.3385 246.041 91.9318C245.359 90.6863 244.168 88.3711 243.887 87.1219C243.794 86.7929 243.809 86.4425 243.931 86.123C244.053 85.8035 244.276 85.532 244.565 85.349C244.757 85.2214 244.991 85.1738 245.218 85.2164C245.445 85.259 245.646 85.3885 245.778 85.5772L251.999 94.6696C252.572 95.5074 252.875 97.4747 252.875 97.4747C252.875 104.431 248.83 106.825 244.786 106.979C243.194 107.038 245.962 107.012 244.786 106.979C243.389 106.937 239.61 106.47 238.554 105.606L235.66 103.238C235.307 102.948 235.024 102.582 234.829 102.169C234.635 101.756 234.535 101.305 234.536 100.848V95.0959C234.541 94.9438 234.606 94.7998 234.717 94.6954C234.828 94.591 234.975 94.5346 235.128 94.5387V94.5387C235.434 94.5317 235.733 94.6312 235.973 94.8202C236.214 95.0093 236.381 95.276 236.446 95.5747C236.775 97.3353 237.013 99.1118 237.158 100.897C237.158 100.897 239.405 102.662 240.153 103.369"
         stroke="#1B1B1B"
         stroke-width="0.777362"
         stroke-linecap="round"
         stroke-linejoin="round"
         id="path105" />
      <path
         opacity="0.84"
         d="M228.562 98.2883L228.102 98.1985C227.653 98.1132 227.24 97.8972 226.915 97.5777C224.765 95.4645 221.601 91.8627 220.406 90.4713C220.349 90.4053 220.308 90.3267 220.287 90.242C220.266 90.1573 220.265 90.0688 220.284 89.9836C220.303 89.8985 220.342 89.819 220.398 89.7517C220.454 89.6844 220.524 89.6311 220.605 89.5961C220.89 89.4632 221.204 89.4023 221.519 89.4186C221.833 89.4349 222.139 89.528 222.41 89.6896C223.885 90.662 225.274 91.7608 226.559 92.9735"
         stroke="#1B1B1B"
         stroke-width="0.777362"
         stroke-linecap="round"
         stroke-linejoin="round"
         id="path107" />
      <path
         d="M231.828 99.9632L230.308 99.6752C230.001 99.6212 229.714 99.4897 229.472 99.2933C229.231 99.0969 229.044 98.8421 228.93 98.5532L225.821 90.3248C225.791 90.2381 225.782 90.1453 225.795 90.0544C225.809 89.9635 225.844 89.8773 225.899 89.8035C225.954 89.7296 226.026 89.6703 226.109 89.6308C226.192 89.5912 226.284 89.5727 226.376 89.5767H226.978C227.219 89.5734 227.457 89.6343 227.666 89.7534C227.876 89.8724 228.049 90.0451 228.169 90.2537C228.896 91.559 230.416 94.4464 230.742 96.0024"
         stroke="#1B1B1B"
         stroke-width="0.777362"
         stroke-linecap="round"
         stroke-linejoin="round"
         id="path109" />
      <path
         d="M234.523 102.306L233.231 101.898C232.945 101.813 232.684 101.657 232.473 101.445C232.262 101.232 232.108 100.97 232.026 100.683L229.846 92.7575C229.826 92.6727 229.827 92.5845 229.847 92.4998C229.867 92.4151 229.906 92.3361 229.961 92.2689C230.016 92.2017 230.087 92.148 230.166 92.1121C230.245 92.0762 230.332 92.059 230.419 92.0618H230.966C231.236 92.058 231.501 92.136 231.727 92.2855C231.952 92.4351 232.127 92.6491 232.228 92.8996C232.602 93.9244 233.28 95.7197 233.774 97.3617L234.523 99.8339"
         stroke="#1B1B1B"
         stroke-width="0.777362"
         stroke-linecap="round"
         stroke-linejoin="round"
         id="path111" />
      <path
         d="M273.258 126.915C274.11 126.538 274.933 126.097 275.718 125.595C276.366 125.191 280.706 122.647 281.867 121.963"
         stroke="#1B1B1B"
         stroke-width="0.801404"
         stroke-linecap="round"
         stroke-linejoin="round"
         id="path113" />
      <path
         d="M244.788 106.97C244.788 106.97 247.151 106.742 250.031 109.588C251.398 110.957 254.768 114.675 257.914 118.191"
         stroke="#1B1B1B"
         stroke-width="0.801404"
         stroke-linecap="round"
         stroke-linejoin="round"
         id="path115" />
      <path
         d="M271.875 115.817C271.875 115.817 259.61 105.767 256.989 103.149C254.367 100.531 252.87 99.0351 252.87 96.791"
         stroke="#1B1B1B"
         stroke-width="0.801404"
         stroke-linecap="round"
         stroke-linejoin="round"
         id="path117" />
      <path
         d="M313.656 146.19C312.761 146.598 312.327 147.043 311.439 147.802C310.491 148.585 309.388 149.16 308.203 149.491C307.018 149.821 305.777 149.9 304.56 149.721L303.436 152.085"
         stroke="#1B1B1B"
         stroke-width="0.801404"
         stroke-linecap="round"
         stroke-linejoin="round"
         id="path119" />
      <path
         d="M347.25 140.556C348.748 146.166 345.378 148.784 338.637 148.784C333.394 148.784 322.35 145.418 315.418 145.792C314.812 145.818 314.215 145.955 313.658 146.196"
         stroke="#1B1B1B"
         stroke-width="0.801404"
         stroke-linecap="round"
         stroke-linejoin="round"
         id="path121" />
      <path
         d="M308.201 138.279C309.339 137.961 310.497 137.722 311.668 137.561C317.286 136.813 332.078 137.12 332.078 137.12C332.078 137.12 327.337 125.858 322.514 116.04"
         stroke="#1B1B1B"
         stroke-width="0.801404"
         stroke-linecap="round"
         stroke-linejoin="round"
         id="path123" />
      <path
         d="M297.152 147.019L293.83 149.226C293.748 149.297 293.67 149.373 293.598 149.454L290.333 152.899C290.085 153.186 289.756 153.392 289.39 153.491C289.023 153.589 288.636 153.576 288.277 153.453L288.134 153.4C288.029 153.359 287.935 153.294 287.859 153.211C287.782 153.128 287.725 153.029 287.692 152.921C287.66 152.814 287.652 152.7 287.669 152.588C287.687 152.477 287.729 152.371 287.794 152.278C288.677 151.021 289.962 148.946 291.834 146.975C294.081 144.615 295.1 143.713 296.703 143.04C299.673 141.791 303.818 139.55 308.211 138.286"
         stroke="#1B1B1B"
         stroke-width="0.801404"
         stroke-linecap="round"
         stroke-linejoin="round"
         id="path125" />
      <path
         d="M298.938 160.079H260.608C258.656 160.161 256.773 160.827 255.205 161.992C253.636 163.156 252.455 164.765 251.815 166.609L228.533 230.316C231.81 232.912 235.551 234.43 240.142 234.43L265.671 180.534C265.878 180.098 266.204 179.729 266.613 179.471C267.021 179.212 267.495 179.075 267.978 179.075H288.691C291.964 172.949 292.991 170.611 294.841 166.52C295.865 164.175 297.247 162.002 298.938 160.079Z"
         fill="#1B1B1B"
         stroke="#1B1B1B"
         stroke-width="0.801404"
         stroke-linecap="round"
         stroke-linejoin="round"
         id="path127" />
      <path
         d="M248.76 217.258L259.156 195.303"
         stroke="white"
         stroke-width="0.801404"
         stroke-linecap="round"
         stroke-linejoin="round"
         id="path129" />
      <path
         d="M273.972 137.448C277.11 135.551 280.024 133.305 282.656 130.753"
         stroke="#1B1B1B"
         stroke-width="0.801404"
         stroke-linecap="round"
         stroke-linejoin="round"
         id="path131" />
      <path
         d="M229.718 156.058C226.493 159.188 224.1 163.587 225.224 169.541C226.561 176.46 229.557 184.109 235.71 188.953C241.484 193.493 240.327 192.637 240.327 192.637"
         stroke="#1B1B1B"
         stroke-width="0.801404"
         stroke-linecap="round"
         stroke-linejoin="round"
         id="path133" />
      <path
         d="M271.975 194.411H321.614C324.558 194.41 327.451 193.646 330.011 192.194C332.571 190.742 334.71 188.651 336.219 186.126C343.383 174.128 355.618 153.718 359.438 138.604"
         stroke="#1B1B1B"
         stroke-width="0.801404"
         stroke-linecap="round"
         stroke-linejoin="round"
         id="path135" />
      <path
         d="M302.68 97.9127V87.7207"
         stroke="#1B1B1B"
         stroke-width="0.801404"
         stroke-linecap="round"
         stroke-linejoin="round"
         id="path137" />
      <path
         d="M320.281 90.0628V74.7168"
         stroke="#1B1B1B"
         stroke-width="0.801404"
         stroke-linecap="round"
         stroke-linejoin="round"
         id="path139" />
      <path
         d="M237.762 204.372C238.207 199.064 236.844 194.139 231.077 184.459C232.916 186.534 234.957 188.421 237.17 190.092C240.357 192.381 240.338 192.635 240.338 192.635L242.297 199.973L238.739 204.372H237.762Z"
         fill="#1B1B1B"
         stroke="#1B1B1B"
         stroke-width="0.801404"
         stroke-linecap="round"
         stroke-linejoin="round"
         id="path141" />
      <path
         d="M275.53 194.413C279.088 194.413 285.769 194.413 285.769 203.453C285.769 212.493 284.451 249.36 284.451 249.36H287.447C287.447 249.36 288.765 210.948 288.765 203.468C288.765 194.428 297.812 194.428 297.812 194.428L275.53 194.413Z"
         fill="#1B1B1B"
         stroke="#1B1B1B"
         stroke-width="0.801404"
         stroke-linecap="round"
         stroke-linejoin="round"
         id="path143" />
      <path
         d="M273.297 194.413C273.297 194.413 277.349 194.447 276.244 199.754L263.916 249.36H266.35L278.948 200.184C279.343 198.331 280.359 196.667 281.828 195.468L279.461 194.413H273.297Z"
         fill="#1B1B1B"
         stroke="#1B1B1B"
         stroke-width="0.801404"
         stroke-linecap="round"
         stroke-linejoin="round"
         id="path145" />
      <path
         d="M160.655 249.357H378.281"
         stroke="#1B1B1B"
         stroke-width="0.801404"
         stroke-linecap="round"
         stroke-linejoin="round"
         id="path147" />
      <path
         opacity="0.83"
         d="M315.711 194.41C315.711 194.41 316.868 194.462 318.826 194.447C323.717 194.41 326.316 202.043 326.316 202.043L341.427 249.357H344.539C344.539 249.357 335.611 221.043 332.181 210.35C328.75 199.657 328.383 199.298 337.776 183.533C337.776 183.533 333.866 191.365 327.178 193.385C322.219 195.61 315.711 194.41 315.711 194.41Z"
         fill="#1B1B1B"
         stroke="#1B1B1B"
         stroke-width="0.801404"
         stroke-linecap="round"
         stroke-linejoin="round"
         id="path149" />
      <path
         d="M209.572 241.215C210.928 240.28 212.52 239.973 217.062 239.001C221.605 238.028 225.346 234.644 225.346 234.644L225.638 231.79L226.593 231.146H230.903L231.686 231.565L231.9 234.419H236.768L239.67 234.602L241.086 239.091L240.681 243.68L239.813 245.666C239.059 245.495 238.28 245.469 237.517 245.587C235.645 245.875 229.278 245.804 228.997 245.759H229.046C227.981 245.577 226.887 245.657 225.859 245.991C224.788 245.969 223.721 245.946 222.668 245.935C220.167 245.913 217.68 245.756 215.179 245.651C212.905 245.561 210.636 245.651 208.363 245.61V245.37V243.803C208.37 243.059 208.213 242.146 209.572 241.215Z"
         fill="#F8EFE5"
         id="path151" />
      <path
         d="M237.848 248.833H210.042C209.557 248.833 209.093 248.641 208.75 248.299C208.407 247.957 208.215 247.492 208.215 247.008V245.654H239.672V247.008C239.672 247.248 239.626 247.485 239.534 247.706C239.443 247.928 239.308 248.129 239.139 248.299C238.97 248.468 238.768 248.603 238.547 248.694C238.325 248.786 238.088 248.833 237.848 248.833Z"
         stroke="#1B1B1B"
         stroke-width="0.801404"
         stroke-linecap="round"
         stroke-linejoin="round"
         id="path153" />
      <path
         d="M239.671 245.652C241.607 244.339 241.674 234.518 239.135 234.432H231.9"
         stroke="#1B1B1B"
         stroke-width="0.801404"
         stroke-linecap="round"
         stroke-linejoin="round"
         id="path155" />
      <path
         d="M231.906 235.541V232.209C231.908 232.069 231.882 231.93 231.83 231.801C231.777 231.671 231.699 231.554 231.6 231.455C231.502 231.356 231.384 231.277 231.255 231.224C231.125 231.172 230.986 231.145 230.846 231.147H226.588C226.316 231.148 226.055 231.256 225.863 231.449C225.67 231.642 225.562 231.903 225.562 232.175V234.419L222.735 236.222C220.48 237.662 218.028 238.765 215.455 239.498L209.774 241.114C209.317 241.271 208.921 241.566 208.64 241.958C208.36 242.35 208.209 242.82 208.208 243.302V245.64"
         stroke="#1B1B1B"
         stroke-width="0.801404"
         stroke-linecap="round"
         stroke-linejoin="round"
         id="path157" />
      <path
         d="M261.237 221.377L261.986 223.793C262.058 224.126 261.997 224.473 261.818 224.762C261.05 226.159 259.899 227.309 258.5 228.076"
         stroke="#1B1B1B"
         stroke-width="0.801404"
         stroke-linecap="round"
         stroke-linejoin="round"
         id="path159" />
      <path
         d="M251.504 224.989L251.953 226.313"
         stroke="#1B1B1B"
         stroke-width="0.801404"
         stroke-linecap="round"
         stroke-linejoin="round"
         id="path161" />
      <path
         d="M302.053 140.482C303.564 140.055 305.014 139.436 306.367 138.638L314.673 105.702C317.354 94.2873 326.383 95.746 328.844 96.5314C328.698 96.4753 328.548 96.4267 328.398 96.3855L322.972 94.2499C322.527 94.0746 322.053 93.9882 321.575 93.9955C317.029 94.0741 313.89 96.6698 311.816 103.181C311.014 105.699 305.951 125.566 302.053 140.482Z"
         fill="#1B1B1B"
         id="path163" />
      <path
         d="M328.445 96.4087C328.179 96.315 327.861 96.1877 327.513 96.0342L328.445 96.4087Z"
         fill="#39B54A"
         id="path165" />
      <path
         d="M297.666 157.261C297.666 157.261 298.04 155.641 298.928 152.271C300.046 152.967 301.253 153.509 302.516 153.884L301.767 156.808L297.666 157.261Z"
         fill="#1B1B1B"
         id="path167" />
      <path
         d="M293.135 99.913C294.048 96.5169 295.086 94.6206 300.25 94.3027V94.7628C298.662 95.552 297.254 97.2276 296.55 100.463L285.592 157.531L282.656 157.239C282.656 157.239 292.03 104.042 293.135 99.913Z"
         fill="#1B1B1B"
         id="path169" />
      <path
         d="M293.055 150.311L291.512 157.264"
         stroke="#1B1B1B"
         stroke-width="0.801404"
         stroke-linecap="round"
         stroke-linejoin="round"
         id="path171" />
      <path
         d="M302.68 106.889L294.426 144.103"
         stroke="#1B1B1B"
         stroke-width="0.801404"
         stroke-linecap="round"
         stroke-linejoin="round"
         id="path173" />
      <path
         d="M313.654 146.194C313.654 146.194 314.972 139.435 308.202 138.279"
         stroke="#1B1B1B"
         stroke-width="0.801404"
         stroke-linecap="round"
         stroke-linejoin="round"
         id="path175" />
      <path
         d="M329.368 137.119L335.734 137.224"
         stroke="#1B1B1B"
         stroke-width="0.801404"
         stroke-linecap="round"
         stroke-linejoin="round"
         id="path177" />
      <path
         d="M234.523 95.4316H233.377"
         stroke="#1B1B1B"
         stroke-width="0.777362"
         stroke-linecap="round"
         stroke-linejoin="round"
         id="path179" />
      <path
         d="M245.075 202.957L258.044 169.73L266.133 164.119L264.346 161.617L246.895 159.328C240.21 158.442 231.915 163.259 237.301 182.461C239.035 188.655 239.997 192.462 242.323 199.382"
         fill="#1B1B1B"
         id="path181" />
      <path
         d="M245.075 202.957L258.044 169.73L266.133 164.119L264.346 161.617L246.895 159.328C240.21 158.442 231.915 163.259 237.301 182.461C239.035 188.655 239.997 192.462 242.323 199.382"
         stroke="#1B1B1B"
         stroke-width="0.801404"
         stroke-linecap="round"
         stroke-linejoin="round"
         id="path183" />
      <path
         d="M261.109 160.107H260.611C258.661 160.187 256.781 160.85 255.213 162.011C253.645 163.171 252.462 164.775 251.818 166.615L235.887 208.131"
         stroke="white"
         stroke-width="0.801404"
         stroke-linecap="round"
         stroke-linejoin="round"
         id="path185" />
      <path
         d="M298.935 160.078H233.144C232.663 160.079 232.192 159.94 231.787 159.679C231.382 159.418 231.062 159.047 230.864 158.608L214.981 123.514C214.867 123.261 214.817 122.984 214.836 122.706C214.855 122.429 214.943 122.161 215.091 121.926C215.24 121.691 215.444 121.496 215.687 121.36C215.929 121.223 216.201 121.149 216.479 121.143L264.486 120.47C265.038 120.464 265.581 120.62 266.046 120.917C266.512 121.215 266.881 121.642 267.107 122.145L282.836 157.258H301.328L298.935 160.078Z"
         fill="#F8EFE5"
         stroke="#1B1B1B"
         stroke-width="0.801404"
         stroke-linecap="round"
         stroke-linejoin="round"
         id="path187" />
      <path
         d="M303.281 74.0313C302.532 74.6298 301.214 74.7494 300.63 74.7046C299.922 74.6522 299.716 74.2483 299.727 73.7882C299.778 71.554 300 69.3269 300.394 67.127"
         stroke="#1B1B1B"
         stroke-width="0.801404"
         stroke-linecap="round"
         stroke-linejoin="round"
         id="path189" />
      <path
         d="M299.719 64.7038C299.197 64.43 298.608 64.3109 298.021 64.3606C297.433 64.4103 296.873 64.6268 296.404 64.9843"
         stroke="#1B1B1B"
         stroke-width="0.801404"
         stroke-linecap="round"
         stroke-linejoin="round"
         id="path191" />
      <path
         d="M322.096 67.6381C322.097 67.2618 322.063 66.8861 321.995 66.516C321.995 66.1196 321.995 65.7306 321.995 65.3379L328.687 71.6962C328.762 71.7731 328.805 71.8765 328.805 71.9842C328.805 72.0919 328.762 72.1953 328.687 72.2722L328.118 72.8557C328.041 72.9308 327.938 72.9729 327.831 72.9729C327.724 72.9729 327.621 72.9308 327.545 72.8557L322.081 67.6531C322.081 67.6531 322.096 67.6531 322.096 67.6381Z"
         fill="#EBC7B5"
         id="path193" />
      <path
         d="M313.904 57.5997L318.562 62.0879C318.298 62.1835 318.057 62.3358 317.858 62.5342C317.659 62.7326 317.506 62.9722 317.409 63.2361L312.78 58.7928L311.443 56.3691L313.904 57.5997Z"
         fill="#EBC7B5"
         id="path195" />
      <path
         d="M327.55 72.8783C327.626 72.9535 327.729 72.9956 327.836 72.9956C327.943 72.9956 328.046 72.9535 328.123 72.8783L328.692 72.2911C328.73 72.2539 328.76 72.2094 328.781 72.1602C328.802 72.1111 328.812 72.0583 328.812 72.005C328.812 71.9517 328.802 71.8989 328.781 71.8498C328.76 71.8007 328.73 71.7562 328.692 71.7189L326.134 69.3027C326.178 69.3772 326.196 69.4639 326.186 69.5496C326.176 69.6354 326.138 69.7155 326.078 69.7777L325.513 70.3612C325.436 70.4375 325.332 70.4803 325.224 70.4803C325.116 70.4803 325.012 70.4375 324.936 70.3612L327.55 72.8783Z"
         fill="#1B1B1B"
         id="path197" />
      <path
         d="M311.438 56.3652L312.775 58.7889L313.898 57.6145L311.438 56.3652Z"
         fill="#1B1B1B"
         id="path199" />
      <path
         d="M299.557 53.9355C298.075 55.4749 296.931 57.3061 296.197 59.3122C295.463 61.3182 295.156 63.455 295.296 65.5862C295.296 65.5862 296.045 68.0772 296.045 68.9524C296.045 69.8276 295.322 72.7337 296.633 77.4688C297.425 80.1781 298.535 82.7844 299.939 85.2334C300.122 85.555 300.386 85.8224 300.706 86.0084C301.026 86.1943 301.389 86.2922 301.759 86.2919H305.913C307.032 86.2917 308.124 85.9397 309.032 85.2858C311.56 83.4755 316.668 79.7129 317.511 78.3253C318.634 76.4552 318.664 73.4182 318.664 73.4182"
         stroke="#1B1B1B"
         stroke-width="0.801404"
         stroke-linecap="round"
         stroke-linejoin="round"
         id="path201" />
      <path
         d="M318.743 71.2973C319.758 71.2973 320.41 70.7512 321.177 69.8461C321.885 69.0195 322.443 67.7179 322.159 65.3579C321.552 60.2899 316.758 61.1202 316.758 65.0773"
         stroke="#1B1B1B"
         stroke-width="0.801404"
         stroke-linecap="round"
         stroke-linejoin="round"
         id="path203" />
      <path
         d="M316.977 63.681C316.977 63.681 313.262 65.9251 309.517 58.5645"
         stroke="#1B1B1B"
         stroke-width="0.801404"
         stroke-linecap="round"
         stroke-linejoin="round"
         id="path205" />
      <path
         d="M307.914 57.0647C307.914 57.0647 300.847 50.9233 296.065 55.6995"
         stroke="#1B1B1B"
         stroke-width="0.801404"
         stroke-linecap="round"
         stroke-linejoin="round"
         id="path207" />
      <path
         d="M302.961 64.6471C304.71 64.1198 307.08 64.2731 307.916 64.5611C308.751 64.8491 310.672 66.8688 310.672 66.8688"
         stroke="#1B1B1B"
         stroke-width="0.801404"
         stroke-linecap="round"
         stroke-linejoin="round"
         id="path209" />
      <path
         d="M321.23 76.2656C321.23 76.2656 324.061 75.282 323.121 71.6689"
         stroke="#1B1B1B"
         stroke-width="0.801404"
         stroke-linecap="round"
         stroke-linejoin="round"
         id="path211" />
      <path
         d="M325.086 73.523C324.975 72.8306 324.739 72.164 324.389 71.5557"
         stroke="#1B1B1B"
         stroke-width="0.801404"
         stroke-linecap="round"
         stroke-linejoin="round"
         id="path213" />
      <path
         d="M316.76 50.9434C323.441 51.6914 325.156 57.5822 325.156 60.1367V67.5012"
         stroke="#1B1B1B"
         stroke-width="0.801404"
         stroke-linecap="round"
         stroke-linejoin="round"
         id="path215" />
      <path
         d="M317.789 52.8756C317.789 52.8756 313.879 49.1691 308.872 47.2055C303.865 45.2419 296.851 45.4887 293.758 49.4496C290.665 53.4104 293.054 57.3788 294.537 58.8599"
         stroke="#1B1B1B"
         stroke-width="0.801404"
         stroke-linecap="round"
         stroke-linejoin="round"
         id="path217" />
      <path
         d="M301.197 77.8628C303.582 78.1919 305.159 77.6309 305.751 77.6309C306.342 77.6309 305.751 79.8077 303.732 80.1069C303.198 80.1716 302.655 80.1061 302.152 79.9161"
         stroke="#1B1B1B"
         stroke-width="0.801404"
         stroke-linecap="round"
         stroke-linejoin="round"
         id="path219" />
      <path
         d="M305.344 68.4361C305.226 67.8909 305.426 67.3854 305.79 67.3071C306.154 67.2287 306.544 67.6072 306.662 68.1525C306.78 68.6977 306.58 69.2031 306.216 69.2815C305.852 69.3598 305.462 68.9813 305.344 68.4361Z"
         fill="#1B1B1B"
         id="path221" />
      <path
         d="M297.43 68.7281C297.312 68.1829 297.512 67.6774 297.876 67.5991C298.24 67.5208 298.63 67.8993 298.748 68.4445C298.866 68.9897 298.666 69.4951 298.302 69.5735C297.938 69.6518 297.548 69.2733 297.43 68.7281Z"
         fill="#1B1B1B"
         id="path223" />
      <path
         d="M224.719 234.974L228.531 239.294"
         stroke="#1B1B1B"
         stroke-width="0.801404"
         stroke-linecap="round"
         stroke-linejoin="round"
         id="path225" />
      <path
         d="M222.16 236.662L224.961 240.088"
         stroke="#1B1B1B"
         stroke-width="0.801404"
         stroke-linecap="round"
         stroke-linejoin="round"
         id="path227" />
      <path
         d="M220.073 238.064L222.031 240.698"
         stroke="#1B1B1B"
         stroke-width="0.801404"
         stroke-linecap="round"
         stroke-linejoin="round"
         id="path229" />
      <path
         d="M244.515 144.91C241.641 142.515 240.664 138.953 242.333 136.954C244.003 134.956 247.687 135.278 250.561 137.673C253.435 140.068 254.412 143.63 252.743 145.628C251.073 147.627 247.39 147.305 244.515 144.91Z"
         fill="#EBC7B5"
         id="path231" />
      <path
         d="M224.055 131.949H231.141L227.942 124.869H220.853L224.055 131.949Z"
         fill="#EBC7B5"
         id="path233" />
      <path
         d="M221.391 125.995H228.477L227.949 124.869H220.859L221.391 125.995Z"
         fill="#1B1B1B"
         id="path235" />
      <path
         d="M193.231 170.253C193.231 170.253 193.793 185.146 192.857 196.52C192.108 205.871 191.205 215.348 187.423 223.984C186.135 220.618 184.139 217.821 182.064 214.866C185.595 215.988 185.131 209.764 185.494 207.651C186.136 203.958 186.813 200.273 187.524 196.595C188.966 189.16 188.498 189.638 190.243 182.266C191.149 178.44 193.231 170.253 193.231 170.253Z"
         fill="#F8EFE5"
         id="path237" />
      <path
         d="M184.862 231.044C183.48 209.392 183.334 192.733 176.803 171.893C183.671 181.262 186.053 194.708 187.73 205.902C189.408 217.096 187.086 217.074 186.903 228.377L185.457 225.688"
         fill="#EBC7B5"
         id="path239" />
      <path
         d="M188.853 229.564C188.091 229.617 187.337 229.754 186.606 229.971C186.606 229.923 186.639 229.878 186.654 229.829C190.242 219.656 191.32 212.658 201.297 201.307C196.088 211.031 193.096 220.426 190.41 229.455L188.853 229.564Z"
         fill="#F8EFE5"
         id="path241" />
      <path
         d="M186.034 230.151C184.838 230.236 183.642 230.314 182.447 230.386C182.278 229.225 182.19 228.052 182.184 226.878C182.55 214.772 180.936 202.687 177.406 191.1C183.599 199.48 187.186 209.496 187.719 219.899C187.858 222.723 188.03 226.384 187.611 229.732C187.075 229.831 186.548 229.971 186.034 230.151V230.151Z"
         fill="#F8EFE5"
         id="path243" />
      <path
         d="M189.476 229.516L188.847 229.56C187.883 229.627 186.932 229.826 186.023 230.151L184.858 230.226C185.633 225.82 186.562 221.437 187.596 217.087C189.174 210.437 191.046 203.863 193.213 197.365C194.299 194.123 195.458 190.902 196.688 187.7C197.437 185.737 200.336 178.795 200.336 178.795C200.336 178.795 195.718 199.269 194.303 207.314C192.996 214.794 191.734 222.271 189.476 229.516Z"
         fill="#EBC7B5"
         id="path245" />
      <path
         d="M187.633 229.724C187.09 229.827 186.555 229.971 186.034 230.154C185.003 230.229 183.969 230.296 182.933 230.356C179.851 217.198 174.042 204.549 168.264 192.061C178.533 202.544 185.296 215.867 187.633 229.724Z"
         fill="#EBC7B5"
         id="path247" />
      <path
         d="M174.735 220.903C174.735 227.239 179.978 232.374 186.446 232.374C192.913 232.374 198.156 227.239 198.156 220.903H174.735Z"
         fill="#F8EFE5"
         id="path249" />
      <path
         d="M174.735 219.443H198.156V220.898H174.735V219.443Z"
         fill="#1B1B1B"
         id="path251" />
      <path
         d="M198.812 225.838H174.729"
         stroke="#1B1B1B"
         stroke-width="0.933635"
         stroke-linecap="round"
         stroke-linejoin="round"
         id="path253" />
      <path
         d="M193.699 225.838L201.391 249.169"
         stroke="#1B1B1B"
         stroke-width="0.933635"
         stroke-linecap="round"
         stroke-linejoin="round"
         id="path255" />
      <path
         d="M179.844 225.838L172.088 249.356"
         stroke="#1B1B1B"
         stroke-width="0.933635"
         stroke-linecap="round"
         stroke-linejoin="round"
         id="path257" />
      <path
         d="M242.294 246.398V243.433L243.23 241.791L245.892 240.04L249.566 230.892L248.971 227.686L249.772 226.37L256.588 226.744L257.876 227.454L258.303 228.524L259.284 227.548L262.018 224.343L261.786 222.689C261.786 222.689 262.786 222.689 263.475 223.961C264.164 225.233 265.703 227.428 265.703 230.162C265.703 232.896 258.004 242.898 258.004 242.898L255.307 246.387L242.294 246.398Z"
         fill="#F8EFE5"
         id="path259" />
      <path
         d="M258.831 230.223L258.134 227.96C258.031 227.624 257.827 227.328 257.551 227.111C257.275 226.894 256.939 226.766 256.588 226.744L250.761 226.37C250.48 226.353 250.2 226.404 249.944 226.519C249.687 226.633 249.463 226.808 249.289 227.029C249.124 227.237 249.01 227.48 248.955 227.74C248.9 227.999 248.905 228.268 248.971 228.525L249.573 230.892L246.495 239.072C246.248 239.73 245.783 240.285 245.177 240.643L243.245 241.791C242.959 241.96 242.723 242.201 242.559 242.488C242.395 242.776 242.309 243.102 242.308 243.433V246.399H255.314C255.314 246.399 263.748 235.863 265.613 231.158C265.837 229.848 265.675 228.502 265.149 227.283C264.504 225.861 263.786 224.473 262.999 223.124C262.999 223.124 262.808 222.701 261.793 222.701C261.793 222.701 263.036 225.319 258.501 228.076"
         stroke="#1B1B1B"
         stroke-width="0.801404"
         stroke-linecap="round"
         stroke-linejoin="round"
         id="path261" />
      <path
         d="M242.3 246.399V248.591C242.3 248.692 242.32 248.792 242.359 248.885C242.398 248.978 242.454 249.063 242.526 249.134C242.598 249.206 242.683 249.262 242.776 249.3C242.87 249.339 242.97 249.358 243.071 249.358L256.313 249.328C256.543 249.328 256.769 249.273 256.972 249.166C257.175 249.059 257.349 248.904 257.478 248.714L267.174 234.509C267.385 234.202 267.525 233.853 267.585 233.486C267.644 233.118 267.622 232.742 267.518 232.385C267.305 231.67 266.511 230.773 265.949 229.92"
         stroke="#1B1B1B"
         stroke-width="0.801404"
         stroke-linecap="round"
         stroke-linejoin="round"
         id="path263" />
      <path
         d="M249.337 232.072L255.977 232.267"
         stroke="#1B1B1B"
         stroke-width="0.801404"
         stroke-linecap="round"
         stroke-linejoin="round"
         id="path265" />
      <path
         d="M248.118 235.072L254.656 235.278"
         stroke="#1B1B1B"
         stroke-width="0.801404"
         stroke-linecap="round"
         stroke-linejoin="round"
         id="path267" />
      <path
         d="M246.803 238.17L252.75 238.301"
         stroke="#1B1B1B"
         stroke-width="0.801404"
         stroke-linecap="round"
         stroke-linejoin="round"
         id="path269" />
      <path
         d="M242.892 242.349H252"
         stroke="#1B1B1B"
         stroke-width="0.801404"
         stroke-linecap="round"
         stroke-linejoin="round"
         id="path271" />
      <text
         xml:space="preserve"
         id="text554"
         style="fill:#0000ff;fill-opacity:0;white-space:pre;shape-inside:url(#rect556)" />
      <text
         xml:space="preserve"
         style="fill:url(#linearGradient884);fill-opacity:1"
         x="203.55324"
         y="327.97455"
         id="text562"><tspan
           sodipodi:role="line"
           id="tspan560"
           x="203.55324"
           y="327.97455"
           style="font-style:normal;font-variant:normal;font-weight:bold;font-stretch:normal;font-family:sans-serif;-inkscape-font-specification:'sans-serif Bold';fill:url(#linearGradient884);fill-opacity:1">REACH OUT TO US</tspan><tspan
           sodipodi:role="line"
           x="203.55324"
           y="342.97455"
           style="fill:url(#linearGradient884);fill-opacity:1"
           id="tspan1056" /></text>
    </g>
    <rect
       x="137.807"
       y="0.580116"
       width="265.693"
       height="546.635"
       rx="36.7131"
       stroke="#1B1B1B"
       stroke-width="1.16023"
       id="rect279" />
    <path
       d="M-5.00002 429.887L515 429.887"
       stroke="#1B1B1B"
       stroke-width="1.4"
       stroke-linecap="round"
       stroke-linejoin="round"
       id="path281" />
  </g>
  <defs
     id="defs291">
    <linearGradient
       inkscape:collect="always"
       id="linearGradient882">
      <stop
         style="stop-color:#ffd5d5;stop-opacity:1;"
         offset="0"
         id="stop878" />
      <stop
         style="stop-color:#ffd5d5;stop-opacity:0.61568627;"
         offset="0.38392138"
         id="stop886" />
      <stop
         style="stop-color:#ffd5d5;stop-opacity:0;"
         offset="1"
         id="stop880" />
    </linearGradient>
    <rect
       x="208.03241"
       y="293.13657"
       width="140.84491"
       height="42.303241"
       id="rect556" />
    <clipPath
       id="clip0_2708_4636">
      <rect
         width="569"
         height="430"
         fill="white"
         id="rect285" />
    </clipPath>
    <clipPath
       id="clip1_2708_4636">
      <rect
         x="137.227"
         width="266.853"
         height="547.795"
         rx="37.2932"
         fill="white"
         id="rect288" />
    </clipPath>
    <linearGradient
       inkscape:collect="always"
       xlink:href="#linearGradient882"
       id="linearGradient884"
       x1="260.96353"
       y1="303.70483"
       x2="252.55359"
       y2="302.21179"
       gradientUnits="userSpaceOnUse"
       gradientTransform="translate(-56.238426,19.907408)" />
  </defs>
</svg>
